<svg width="374" height="165" viewBox="0 0 374 165" fill="none" xmlns="http://www.w3.org/2000/svg">
<path d="M0 10.2519C0 4.72904 4.47715 0.251892 10 0.251892H363.954C369.477 0.251892 373.954 4.72904 373.954 10.2519V122.247C373.954 127.427 369.998 131.75 364.838 132.208L10.8838 163.615C5.0351 164.134 0 159.526 0 153.654V10.2519Z" fill="#043353"/>
<path d="M57.9221 31.9328C61.116 41.2442 57.8551 50.6425 50.6408 52.9432C43.4265 55.2439 34.9838 49.5572 31.7899 40.2458C28.5959 30.9344 31.8569 21.5361 39.0711 19.2354C46.2854 16.9347 54.7282 22.6214 57.9221 31.9328ZM29.7573 54.875C33.9787 61.9074 32.9513 70.0901 27.4791 73.1288C22.007 76.1675 14.145 72.9335 9.94598 65.9011C5.74695 58.8687 6.7297 50.6859 12.2018 47.6472C17.674 44.6085 25.536 47.8425 29.735 54.875H29.7573ZM22.7887 98.8492C34.4924 68.1801 55.2865 60.388 64.511 60.388C73.7355 60.388 94.5296 68.1801 106.233 98.8492C107.037 100.955 107.395 103.212 107.395 105.469V105.817C107.395 111.416 102.727 115.953 96.9641 115.953C94.3956 115.953 91.8493 115.649 89.3701 115.041L69.7151 110.266C66.2978 109.441 62.7242 109.441 59.3069 110.266L39.6519 115.041C37.1727 115.649 34.6264 115.953 32.0579 115.953C26.2954 115.953 21.6273 111.416 21.6273 105.817V105.469C21.6273 103.212 21.9847 100.955 22.7887 98.8492ZM101.543 73.1288C96.0707 70.0901 95.0433 61.9074 99.2646 54.875C103.486 47.8425 111.326 44.6085 116.798 47.6472C122.27 50.6859 123.297 58.8687 119.076 65.9011C114.855 72.9335 107.015 76.1675 101.543 73.1288ZM76.5944 52.9432C69.3801 50.6425 66.1191 41.2442 69.3131 31.9328C72.507 22.6214 80.9497 16.9347 88.164 19.2354C95.3783 21.5361 98.6393 30.9344 95.4453 40.2458C92.2514 49.5572 83.8087 55.2439 76.5944 52.9432Z" fill="#BC9EC1"/>
<path d="M62.8739 71.1723H69.7239V104.172H61.4239V79.6223C59.1739 81.6723 56.4739 83.3223 53.6239 83.8223L52.8239 76.7223C56.2239 76.3223 61.2239 73.6223 62.8739 71.1723Z" fill="#1A3550"/>
</svg>
