<svg width="374" height="166" viewBox="0 0 374 166" fill="none" xmlns="http://www.w3.org/2000/svg">
<path d="M0 10.7785C0 5.25565 4.47715 0.778503 10 0.778503H363.954C369.477 0.778503 373.954 5.25566 373.954 10.7785V122.774C373.954 127.954 369.998 132.277 364.838 132.735L10.8838 164.142C5.0351 164.661 0 160.053 0 154.181V10.7785Z" fill="#043353"/>
<path d="M62.4296 29.5848C65.6143 39.1617 62.3628 48.8279 55.1694 51.1942C47.976 53.5605 39.5578 47.7117 36.3731 38.1348C33.1884 28.558 36.4399 18.8918 43.6333 16.5255C50.8267 14.1591 59.2449 20.008 62.4296 29.5848ZM34.3465 53.181C38.5556 60.4139 37.5312 68.83 32.0749 71.9553C26.6186 75.0806 18.7794 71.7544 14.5925 64.5215C10.4056 57.2886 11.3855 48.8725 16.8418 45.7472C22.2981 42.6219 30.1373 45.9481 34.3242 53.181H34.3465ZM27.3981 98.4089C39.0678 66.8655 59.8017 58.8513 68.9994 58.8513C78.1972 58.8513 98.9311 66.8655 110.601 98.4089C111.403 100.574 111.759 102.896 111.759 105.218V105.575C111.759 111.334 107.104 116 101.359 116C98.7974 116 96.2586 115.687 93.7866 115.062L74.1885 110.151C70.7811 109.303 67.2178 109.303 63.8104 110.151L44.2123 115.062C41.7403 115.687 39.2015 116 36.6403 116C30.8945 116 26.24 111.334 26.24 105.575V105.218C26.24 102.896 26.5963 100.574 27.3981 98.4089ZM105.924 71.9553C100.468 68.83 99.4433 60.4139 103.652 53.181C107.862 45.9481 115.679 42.6219 121.135 45.7472C126.591 48.8725 127.616 57.2886 123.406 64.5215C119.197 71.7544 111.38 75.0806 105.924 71.9553ZM81.0478 51.1942C73.8544 48.8279 70.6029 39.1617 73.7876 29.5848C76.9723 20.008 85.3906 14.1591 92.584 16.5255C99.7773 18.8918 103.029 28.558 99.8442 38.1348C96.6595 47.7117 88.2412 53.5605 81.0478 51.1942Z" fill="#E2FCEF"/>
<path d="M57 101V95.5C68.3 88.45 72.8 83.35 72.8 78.7C72.8 76.15 71.3 74.25 68.35 74.25C65.2 74.25 63.4 76.6 63.3 81L55.95 78.75C56.1 71.45 61.5 67.5 68.9 67.5C77.65 67.5 81.35 72.95 81.35 78.1C81.35 84.55 76.3 89.45 67.35 94.6V94.65C69 94.55 71.9 94.45 74 94.45H81.75V101H57Z" fill="#1A3550"/>
</svg>
