<svg width="374" height="166" viewBox="0 0 374 166" fill="none" xmlns="http://www.w3.org/2000/svg">
<path d="M-0.000244141 10.7585C-0.000244141 5.23569 4.47691 0.758545 9.99976 0.758545H363.954C369.476 0.758545 373.954 5.2357 373.954 10.7585V122.754C373.954 127.934 369.997 132.257 364.837 132.715L10.8836 164.122C5.03486 164.641 -0.000244141 160.033 -0.000244141 154.161V10.7585Z" fill="#043353"/>
<path d="M59.4294 25.3881C62.6141 34.965 59.3626 44.6312 52.1692 46.9975C44.9758 49.3638 36.5575 43.515 33.3728 33.9381C30.1882 24.3612 33.4397 14.6951 40.633 12.3287C47.8264 9.96243 56.2447 15.8112 59.4294 25.3881ZM31.3462 48.9843C35.5554 56.2172 34.5309 64.6332 29.0746 67.7586C23.6183 70.8839 15.7791 67.5577 11.5923 60.3248C7.40539 53.0919 8.38529 44.6758 13.8416 41.5505C19.2979 38.4252 27.1371 41.7514 31.324 48.9843H31.3462ZM24.3978 94.2122C36.0676 62.6688 56.8015 54.6545 65.9992 54.6545C75.1969 54.6545 95.9308 62.6688 107.601 94.2122C108.402 96.3776 108.759 98.6993 108.759 101.021V101.378C108.759 107.138 104.104 111.803 98.3583 111.803C95.7972 111.803 93.2583 111.491 90.7863 110.866L71.1882 105.954C67.7808 105.106 64.2176 105.106 60.8102 105.954L41.2121 110.866C38.7401 111.491 36.2012 111.803 33.6401 111.803C27.8943 111.803 23.2397 107.138 23.2397 101.378V101.021C23.2397 98.6993 23.5961 96.3776 24.3978 94.2122ZM102.924 67.7586C97.4675 64.6332 96.443 56.2172 100.652 48.9843C104.861 41.7514 112.678 38.4252 118.135 41.5505C123.591 44.6758 124.615 53.0919 120.406 60.3248C116.197 67.5577 108.38 70.8839 102.924 67.7586ZM78.0476 46.9975C70.8542 44.6312 67.6027 34.965 70.7874 25.3881C73.9721 15.8112 82.3903 9.96243 89.5837 12.3287C96.7771 14.6951 100.029 24.3612 96.8439 33.9381C93.6592 43.515 85.241 49.3638 78.0476 46.9975Z" fill="#E5D7E8"/>
<path d="M65.9498 64.3033C73.4498 64.3033 77.6998 67.9533 77.6998 73.5533C77.6998 79.1033 73.3998 81.1533 71.4998 81.1533V81.3033C73.7998 81.3033 78.3498 82.9533 78.3498 88.8033C78.3498 94.5033 72.9998 98.3033 65.5498 98.3033C58.5998 98.3033 54.3998 95.9033 52.5498 90.1033L60.3498 86.7533C60.6998 90.3033 62.4998 91.6533 65.4498 91.6533C68.3498 91.6533 70.0998 90.2033 70.0498 87.6533C69.9998 85.1033 68.4998 84.1033 65.1498 84.1033H63.2998V78.6533H64.7498C67.8998 78.6533 69.3498 77.4033 69.3498 74.8533C69.3998 72.3033 67.9498 70.9533 65.4498 70.9533C62.8998 70.9533 61.1498 72.2533 60.8498 75.4033L53.2998 72.8533C54.4498 66.7033 59.5498 64.3033 65.9498 64.3033Z" fill="#1A3550"/>
</svg>
