<svg width="115" height="101" viewBox="0 0 115 101" fill="none" xmlns="http://www.w3.org/2000/svg">
<path d="M50.7543 13.8431C53.939 23.42 50.6875 33.0862 43.4941 35.4525C36.3008 37.8188 27.8825 31.97 24.6978 22.3931C21.5131 12.8163 24.7646 3.15008 31.958 0.783766C39.1514 -1.58255 47.5697 4.26627 50.7543 13.8431ZM22.6712 37.4393C26.8803 44.6722 25.8559 53.0883 20.3996 56.2136C14.9433 59.3389 7.10407 56.0127 2.9172 48.7798C-1.26966 41.5469 -0.289756 33.1308 5.16653 30.0055C10.6228 26.8802 18.462 30.2064 22.6489 37.4393H22.6712ZM15.7228 82.6672C27.3925 51.1238 48.1264 43.1096 57.3242 43.1096C66.5219 43.1096 87.2558 51.1238 98.9255 82.6672C99.7273 84.8326 100.084 87.1543 100.084 89.4759V89.8331C100.084 95.5926 95.4291 100.258 89.6833 100.258C87.1221 100.258 84.5833 99.9458 82.1113 99.3207L62.5132 94.4095C59.1058 93.5612 55.5425 93.5612 52.1351 94.4095L32.537 99.3207C30.065 99.9458 27.5262 100.258 24.965 100.258C19.2192 100.258 14.5647 95.5926 14.5647 89.8331V89.4759C14.5647 87.1543 14.921 84.8326 15.7228 82.6672ZM94.2487 56.2136C88.7924 53.0883 87.768 44.6722 91.9771 37.4393C96.1863 30.2064 104.003 26.8802 109.46 30.0055C114.916 33.1308 115.94 41.5469 111.731 48.7798C107.522 56.0127 99.705 59.3389 94.2487 56.2136ZM69.3725 35.4525C62.1791 33.0862 58.9276 23.42 62.1123 13.8431C65.297 4.26627 73.7153 -1.58255 80.9087 0.783766C88.1021 3.15008 91.3536 12.8163 88.1689 22.3931C84.9842 31.97 76.5659 37.8188 69.3725 35.4525Z" fill="#BC9EC1"/>
<path d="M45 87V81.5C56.3 74.45 60.8 69.35 60.8 64.7C60.8 62.15 59.3 60.25 56.35 60.25C53.2 60.25 51.4 62.6 51.3 67L43.95 64.75C44.1 57.45 49.5 53.5 56.9 53.5C65.65 53.5 69.35 58.95 69.35 64.1C69.35 70.55 64.3 75.45 55.35 80.6V80.65C57 80.55 59.9 80.45 62 80.45H69.75V87H45Z" fill="#F2FFF9"/>
</svg>
